<svg width="144" height="144" viewBox="0 0 144 144" fill="none" xmlns="http://www.w3.org/2000/svg">
<path d="M73.199 83.715C71.3386 81.1471 69.6935 78.8765 68.2853 76.4879C67.0394 74.3759 61.2717 78.1542 61.2717 78.1542C61.2717 78.1542 57.7506 72.8068 55.7574 69.4274C54.8609 67.9061 53.4137 65.7052 51.8207 63.2826C49.8744 60.3227 47.7104 57.0316 46.0666 54.2439C43.0759 49.1743 41.5387 46.2109 38.6749 40.4582C36.6763 36.4454 35.6977 33.4789 36.9242 27.5112C37.5965 24.2357 39.1935 20.757 41.2762 18.2243C43.356 15.6921 47.5218 23.5451 47.5218 23.5451C47.5218 23.5451 55.0824 33.8605 58.5705 39.7754C62.0574 45.6911 71.4496 58.7882 73.8376 61.3242C75.5641 63.1561 75.2166 65.4274 74.8747 67.6621C74.7435 68.52 74.613 69.3726 74.6011 70.1928C74.5698 72.2704 78.8475 78.3745 82.2846 83.2791C83.7387 85.3539 85.0422 87.2141 85.8055 88.4639C89.3211 94.2261 96.7145 103.149 99.1041 105.685C99.7625 106.384 100.544 107.167 101.362 107.985C103.508 110.133 105.899 112.526 106.943 114.297C107.73 115.633 106.284 120.894 106.284 120.894C106.284 120.894 98.76 125.454 95.9868 123.882C94.5602 123.071 90.4934 115.38 90.4934 115.38C90.4934 115.38 86.9776 105.439 81.4964 96.1443C78.3986 90.8915 75.617 87.0522 73.199 83.715Z" fill="#CCD1D5"/>
<path d="M99.1766 19.6721C98.7824 19.924 98.2763 20.2474 97.5459 20.898C97.5459 20.898 91.0572 27.1121 86.9942 31.1715C83.1503 35.0132 79.9848 38.8894 80.3879 42.9C80.7928 46.9109 80.6538 52.2592 80.6538 52.2592C80.6538 52.2592 79.6992 57.8386 76.7184 62.3826C74.2085 66.2115 68.8431 72.748 65.325 77.0338C64.552 77.9755 63.8681 78.8086 63.3234 79.4804C62.5277 80.4611 61.1212 82.2708 59.4328 84.4431C55.1299 89.9792 48.9969 97.87 46.4817 100.394C45.0828 101.797 43.366 103.391 41.7132 104.925C39.1451 107.308 36.7317 109.548 35.906 110.709C34.5507 112.619 33.0882 115.687 34.1408 117.777C35.5959 120.665 39.1948 122.408 41.1359 122.972C43.381 123.624 44.7956 122.776 46.0196 122.042C46.2001 121.934 46.3765 121.828 46.5508 121.73C46.5508 121.73 51.7206 111.789 53.6593 108.035C54.3966 106.606 55.5189 104.871 56.6654 103.098C58.0577 100.945 59.4859 98.7365 60.3038 96.955C61.7963 93.709 73.0209 77.5263 75.0366 74.6862C75.6858 73.772 76.9505 71.8645 78.4029 69.6739C81.2429 65.3902 84.8006 60.0242 85.8766 58.8869C87.2843 57.3994 89.5585 57.1772 92.4275 56.8969C92.8748 56.8532 93.3365 56.8081 93.8117 56.7565C97.3347 56.3744 100.436 54.1682 101.792 52.8318C103.148 51.4944 107.992 41.8771 108.807 40.1584C109.106 39.5262 109.839 37.8714 110.667 36.0025C112.092 32.7869 113.797 28.9377 114.054 28.5757C114.462 28.0011 114.069 26.9303 112.565 26.6644C112.347 26.6262 111.864 27.2238 111.25 28.1621C109.97 30.1192 108.12 33.5536 106.924 35.7721C106.401 36.7445 106.003 37.4833 105.834 37.7619C104.982 39.1595 101.932 44.0459 100.847 45.5735C100.613 45.9033 100.5 46.1468 100.411 46.3403C100.293 46.5956 100.215 46.7639 99.9523 46.9285C99.491 47.2158 99.024 47.2273 98.461 46.8817C98.0734 46.6447 98.06 45.8718 98.3666 45.1182C98.6764 44.3567 99.0602 43.5857 99.4 42.9033C99.6707 42.3595 99.9134 41.8719 100.069 41.49C100.611 40.1533 108.445 27.428 109.123 26.4719C109.463 25.9959 109.829 25.3456 110.042 24.7477C110.243 24.1816 109.786 23.6736 109.311 23.4823C108.614 23.2015 107.996 24.2361 107.206 25.5594C106.923 26.0339 106.617 26.5455 106.278 27.0469L106.176 27.1971C104.911 29.0663 97.9843 39.2986 97.3285 40.2261C97.2461 40.3417 97.1598 40.4795 97.0671 40.6277C96.7318 41.1633 96.3113 41.835 95.6768 42.0898C95.0387 42.3444 94.4678 42.3608 93.9298 41.8558C93.5509 41.5008 93.468 40.9062 93.6482 40.4584C94.047 39.4619 95.0247 38.315 95.0247 38.315C95.0247 38.315 105.058 24.7532 106.009 23.4176C106.958 22.08 106.766 21.3008 105.819 20.9202C105.389 20.7468 104.477 21.289 104.047 21.9183C103.7 22.425 103.386 22.8623 103.061 23.3142C102.898 23.5407 102.732 23.771 102.559 24.0155C102.084 24.6843 100.201 27.1131 98.3185 29.542C96.4357 31.9708 94.5529 34.3997 94.0785 35.0685C93.4319 35.9786 91.441 38.2414 89.8693 39.393C89.1327 39.9334 88.8221 40.0038 88.4758 39.7587C87.9348 39.3773 87.1908 38.6459 87.4621 37.7629C87.7333 36.8783 88.7279 35.4261 89.5416 34.5672C90.4411 33.6166 92.5865 31.0164 94.6463 28.5199C96.3124 26.5006 97.9225 24.5491 98.7719 23.5934C99.3641 22.9274 99.8543 22.4009 100.292 21.931C100.809 21.3758 101.252 20.8997 101.703 20.3656C102.6 19.3001 102.073 18.8773 101.711 18.6235C101.367 18.3813 100.404 18.5972 100.002 19.0343C99.7617 19.2983 99.5089 19.4598 99.1766 19.6721Z" fill="#6E767E"/>
</svg>
